<?xml version="1.0" standalone="no"?>
<!DOCTYPE svg PUBLIC "-//W3C//DTD SVG 20010904//EN"
 "http://www.w3.org/TR/2001/REC-SVG-20010904/DTD/svg10.dtd">
<svg version="1.0" xmlns="http://www.w3.org/2000/svg"
 width="100.000000pt" height="100.000000pt" viewBox="0 0 100.000000 100.000000"
 preserveAspectRatio="xMidYMid meet">

<g transform="translate(0.000000,100.000000) scale(0.100000,-0.100000)"
fill="#000000" stroke="none">
<path d="M418 863 c-65 -4 -67 -5 -112 -53 -47 -50 -58 -74 -31 -64 8 4 15 2
15 -4 0 -6 -6 -13 -12 -15 -8 -3 -6 -6 5 -6 9 -1 17 -5 17 -11 0 -6 32 -10 76
-10 l76 0 79 77 c44 42 79 80 79 85 0 8 -51 8 -192 1z"/>
<path d="M300 597 c-20 -10 -25 -20 -25 -52 0 -32 5 -42 26 -54 24 -13 29 -13
55 4 20 13 24 20 14 23 -8 3 -16 0 -18 -6 -2 -7 -14 -12 -28 -12 -27 0 -44 42
-27 69 12 18 53 28 53 12 0 -6 8 -11 18 -11 14 1 13 4 -7 20 -27 23 -28 24
-61 7z"/>
<path d="M655 583 c-3 -10 -2 -19 4 -21 5 -2 8 -13 5 -26 -4 -24 20 -66 31
-54 3 3 0 15 -7 27 -10 17 -10 25 0 41 10 17 10 23 -2 35 -19 19 -22 19 -31
-2z"/>
<path d="M400 529 c0 -31 4 -48 10 -44 6 3 10 20 10 36 0 17 6 32 15 35 8 4
15 11 15 16 0 6 -6 5 -15 -2 -10 -9 -15 -9 -15 -1 0 6 -4 11 -10 11 -5 0 -10
-23 -10 -51z"/>
<path d="M460 576 c0 -4 7 -23 15 -43 18 -43 19 -70 3 -76 -8 -3 -5 -6 5 -6
22 -1 74 106 59 121 -6 6 -12 -1 -17 -21 -9 -40 -23 -48 -31 -17 -5 23 -34 58
-34 42z"/>
<path d="M583 573 c-23 -9 -15 -42 12 -49 27 -7 32 -18 13 -30 -6 -4 -14 -2
-16 4 -2 7 -11 12 -20 12 -15 0 -15 -1 0 -16 11 -11 25 -14 42 -10 33 8 33 33
1 48 -14 6 -25 17 -25 25 0 10 5 11 19 3 29 -15 39 -12 17 5 -21 16 -24 16
-43 8z"/>
<path d="M729 563 c-12 -15 -12 -16 6 -9 32 12 37 12 42 -1 3 -8 -3 -13 -15
-13 -24 0 -46 -25 -39 -45 4 -9 19 -14 42 -13 33 1 35 3 35 38 0 56 -41 81
-71 43z m51 -42 c0 -5 -6 -14 -14 -20 -16 -13 -32 2 -21 19 8 12 35 13 35 1z"/>
<path d="M830 528 c0 -27 5 -48 10 -48 6 0 10 16 10 35 0 22 6 38 15 41 24 9
17 22 -10 20 -23 -1 -25 -5 -25 -48z"/>
<path d="M900 565 c-11 -13 -8 -14 19 -9 19 4 31 2 31 -4 0 -6 -10 -12 -21
-14 -30 -4 -49 -35 -30 -47 8 -5 26 -8 40 -7 21 3 27 9 29 35 5 53 -38 82 -68
46z m50 -45 c0 -12 -28 -25 -36 -17 -9 9 6 27 22 27 8 0 14 -5 14 -10z"/>
<path d="M164 442 c-24 -13 -38 -33 -57 -83 -55 -140 -48 -146 49 -40 55 61
60 70 56 104 -5 42 -5 42 -48 19z"/>
<path d="M772 425 c0 -16 2 -22 5 -12 2 9 2 23 0 30 -3 6 -5 -1 -5 -18z"/>
<path d="M793 435 c0 -8 4 -12 9 -9 5 3 6 10 3 15 -9 13 -12 11 -12 -6z"/>
<path d="M882 420 c0 -14 2 -19 5 -12 2 6 2 18 0 25 -3 6 -5 1 -5 -13z"/>
<path d="M922 420 c0 -14 2 -19 5 -12 2 6 2 18 0 25 -3 6 -5 1 -5 -13z"/>
<path d="M605 421 c-3 -5 -1 -12 5 -16 5 -3 10 1 10 9 0 18 -6 21 -15 7z"/>
<path d="M652 410 c0 -14 2 -19 5 -12 2 6 2 18 0 25 -3 6 -5 1 -5 -13z"/>
<path d="M731 414 c0 -11 3 -14 6 -6 3 7 2 16 -1 19 -3 4 -6 -2 -5 -13z"/>
<path d="M941 414 c0 -11 3 -14 6 -6 3 7 2 16 -1 19 -3 4 -6 -2 -5 -13z"/>
<path d="M313 361 c-18 -10 -30 -21 -26 -25 6 -6 -15 -10 -45 -9 -7 1 -11 -2
-7 -5 3 -4 -20 -19 -52 -34 -83 -39 -54 -34 112 17 80 25 151 43 156 39 6 -3
8 -15 6 -26 -5 -19 -5 -19 14 -2 20 18 26 29 10 20 -5 -3 -12 1 -15 9 -5 13
-2 14 15 5 15 -9 24 -8 35 1 28 23 12 29 -78 28 -70 0 -101 -5 -125 -18z"/>
</g>
</svg>
